<?xml version="1.0" encoding="utf-8"?>
<!-- Generator: Adobe Illustrator 28.2.0, SVG Export Plug-In . SVG Version: 6.00 Build 0)  -->
<svg version="1.1" id="Layer_1" xmlns="http://www.w3.org/2000/svg" xmlns:xlink="http://www.w3.org/1999/xlink" x="0px" y="0px"
	 viewBox="0 0 4000 384.75" style="enable-background:new 0 0 4000 384.75;" xml:space="preserve">
<style type="text/css">
	.st0{fill:#FFFFFF;}
	.st1{fill-rule:evenodd;clip-rule:evenodd;fill:#FFFFFF;}
</style>
<g>
	<path class="st0" d="M216.54,73.64c19.48,0,35.27-15.81,35.27-35.32C251.81,18.81,236.02,3,216.54,3
		c-19.48,0-35.27,15.81-35.27,35.32C181.27,57.83,197.06,73.64,216.54,73.64z"/>
	<path class="st0" d="M394.02,310.78c-19.48,0-35.27,15.81-35.27,35.32c0,19.51,15.79,35.32,35.27,35.32
		c19.48,0,35.27-15.81,35.27-35.32C429.3,326.59,413.5,310.78,394.02,310.78z"/>
	<path class="st0" d="M38.5,310.78c-19.48,0-35.27,15.81-35.27,35.32c0,19.51,15.79,35.32,35.27,35.32
		c19.48,0,35.27-15.81,35.27-35.32C73.78,326.59,57.99,310.78,38.5,310.78z"/>
	<path class="st0" d="M215.49,120.73c-15.34,66.12-56.13,106.86-122.12,121.93v1.51c66.24,15.11,107.17,56.2,122.23,122.67h1.51
		c15.02-66.22,55.6-107.17,121.49-122.56v-1.73c-65.64-15.35-106.08-55.95-121.38-121.82H215.49z"/>
	<path class="st0" d="M2537.94,373.65V3h50.96v157.2h183.88V3h51.49v370.65h-51.49V205.94H2588.9v167.71H2537.94z"/>
	<path class="st0" d="M3540.93,373.65c-42.04,0-62.01-23.13-62.01-60.46V3h48.87v307.04c0,16.82,7.87,23.13,23.11,23.13h9.98v40.48
		H3540.93z"/>
	<path class="st0" d="M3769.32,373.65V3h49.38v142.48c8.94-14.2,34.14-39.96,81.44-39.96c55.67,0,96.14,34.17,96.14,98.31v169.82
		h-49.38V213.3c0-49.42-23.11-67.82-59.9-67.82c-48.87,0-68.3,38.91-68.3,89.9v138.27H3769.32z"/>
	<path class="st1" d="M3153.05,243.26c0,81.49,50.96,138.27,128.19,138.27c57.79,0,87.73-36.28,93.53-45.74v37.85h47.8V113.4h-47.8
		v34.17c-12.63-17.88-43.09-42.06-94.05-42.06C3203.49,105.52,3153.05,163.87,3153.05,243.26z M3289.65,340.53
		c-52.54,0-86.16-38.38-86.16-97.26c0-58.88,33.63-96.74,86.16-96.74c51.49,0,87.2,38.38,87.2,96.74
		C3376.85,302.67,3341.14,340.53,3289.65,340.53z"/>
	<path class="st1" d="M2118.39,243.26c0,81.49,50.96,138.27,128.19,138.27c57.79,0,87.74-36.28,93.52-45.74v37.85h47.81V113.4
		h-47.81v34.17c-12.61-17.88-43.08-42.06-94.04-42.06C2168.82,105.52,2118.39,163.88,2118.39,243.26z M2254.98,340.53
		c-52.54,0-86.16-38.38-86.16-97.26s33.62-96.74,86.16-96.74c51.48,0,87.21,38.38,87.21,96.74
		C2342.19,302.67,2306.47,340.53,2254.98,340.53z"/>
	<path class="st0" d="M1853.15,373.65V113.4h47.81v35.22c8.41-14.72,34.67-43.11,83.01-43.11c55.69,0,96.14,34.17,96.14,98.31
		v169.82h-48.86V210.14c0-47.32-23.64-64.14-59.37-64.14c-49.91,0-69.35,39.43-69.35,91.48v136.17H1853.15z"/>
	<path class="st1" d="M1533.77,243.26c0,81.49,50.96,138.27,128.19,138.27c57.79,0,87.74-36.28,93.51-45.74v37.85h47.81V113.4
		h-47.81v34.17c-12.61-17.88-43.08-42.06-94.04-42.06C1584.21,105.52,1533.77,163.88,1533.77,243.26z M1670.37,340.53
		c-52.54,0-86.16-38.38-86.16-97.26s33.63-96.74,86.16-96.74c51.49,0,87.21,38.38,87.21,96.74
		C1757.58,302.67,1721.86,340.53,1670.37,340.53z"/>
	<path class="st0" d="M1380.48,373.65V113.41h47.81v48.89c11.03-22.08,37.3-51.52,86.69-51.52h7.35v49.42h-13.13
		c-57.27,0-79.33,33.65-79.33,85.17v128.28H1380.48z"/>
	<path class="st1" d="M724.6,3L575.25,374.04h54.89c23.75-65.2,68.08-96.47,124.02-97c61.22,0,103.97,31.27,127.18,97h58.05
		L786.34,3H724.6z M754.68,231.99c-31.66,0-58.05,11.13-80.22,24.38L754.15,47l81.8,209.37
		C815.37,243.12,786.34,231.99,754.68,231.99z"/>
	<path class="st0" d="M1065.55,381.41c-61.81,0.49-96.03-29.65-113.62-70.97l42.52-17.5c6.35,19.44,29.07,49.1,70.62,49.1
		c36.66,0,59.39-15.56,59.39-37.43c0-19.93-11.73-31.6-54.74-39.38l-24.44-4.37c-65.98-11.67-83.57-39.38-83.57-77.78
		c0-42.78,40.07-76.81,96.77-76.81s90.42,24.31,105.57,57.36l-42.52,17.5c-8.8-22.36-30.79-35.49-63.54-35.49
		c-32.74,0-50.83,15.07-50.83,34.03c0,18.96,15.15,28.68,52.78,35.49l26.39,4.86c58.65,10.69,88.95,36.94,88.95,82.15
		C1175.27,347.38,1135.92,380.93,1065.55,381.41z"/>
	<path class="st0" d="M1231.5,293.21c0,51.83,25.8,80.1,71.61,80.1h39.49v-41.88h-24.22c-24.22,0-37.91-8.9-37.91-36.64V151.86
		h62.13v-37.69h-62.13V48.73h-39.76l-1.09,17.93c-1.7,29.64-19.02,50.3-47.29,53.99l-8.21,1.19v30.01h47.39V293.21z"/>
	<path class="st0" d="M3686.24,373.3c-45.79,0-71.59-28.27-71.59-80.1V151.86h-47.4v-30.01l8.21-1.19
		c28.27-3.69,45.63-24.35,47.3-53.99l1.11-17.93h39.76v65.44h62.11v37.69h-62.11v142.92c0,27.75,13.67,36.64,37.89,36.64h24.22
		v41.88H3686.24z"/>
	<path class="st1" d="M2865.51,243.97c0,82.27,50.26,137.45,132.05,137.45c68.98,0,104.45-37.44,118.25-69.46l-44.34-16.75
		c-10.84,24.63-34.49,45.82-74.89,45.82c-47.79,0-80.31-32.02-81.3-85.72h203.48c4.93-88.18-46.31-149.77-125.64-149.77
		C2913.8,105.53,2865.51,161.7,2865.51,243.97z M3067.03,217.86h-150.76c5.91-49.26,33.01-73.4,76.86-73.4
		C3030.57,144.45,3064.57,167.11,3067.03,217.86z"/>
</g>
</svg>
